# xmcd
#
# Track frame offsets: 
#        150
#        18478
#        39485
#        59745
#        77613
#        98769
#
# Disc length: 1490 seconds
#
# Revision: 1
# Processed by: cddbd v1.5.2PL0 Copyright (c) Steve Scherf et al.
# Submitted via: ExactAudioCopy v0.99pb4
#
DISCID=4405d006
DTITLE=Mary Kastle - Fresh air
DYEAR=2006
DGENRE=Jazz
TTITLE0=The Moments We Lost
TTITLE1=Bell
TTITLE2=Fresh Air
TTITLE3=Circus
TTITLE4=Perfect All The Time
TTITLE5=Blue Bermuda Moon
EXTD=YEAR: 2006
EXTT0=
EXTT1=
EXTT2=
EXTT3=
EXTT4=
EXTT5=
PLAYORDER=
